{
  "accessors": [
    {
      "bufferView": 1,
      "componentType": 5126,
      "count": 65532,
      "max": [
        250.83810424804688,
        391.765380859375,
        254.82444763183594
      ],
      "min": [
        -325.8009033203125,
        -439.7901611328125,
        -287.6865234375
      ],
      "type": "VEC3"
    },
    {
      "bufferView": 1,
      "byteOffset": 786384,
      "componentType": 5126,
      "count": 65532,
      "max": [
        0.9999874830245972,
        0.9999607801437378,
        0.9999881386756897
      ],
      "min": [
        -0.9999970197677612,
        -0.9999817609786987,
        -0.9999901056289673
      ],
      "type": "VEC3"
    },
    {
      "bufferView": 0,
      "componentType": 5125,
      "count": 333858,
      "type": "SCALAR"
    },
    {
      "bufferView": 1,
      "byteOffset": 1572768,
      "componentType": 5126,
      "count": 65532,
      "max": [
        272.73297119140625,
        391.658935546875,
        269.0083312988281
      ],
      "min": [
        -325.0395202636719,
        -437.180419921875,
        -300.918212890625
      ],
      "type": "VEC3"
    },
    {
      "bufferView": 1,
      "byteOffset": 2359152,
      "componentType": 5126,
      "count": 65532,
      "max": [
        0.999995231628418,
        0.9999143481254578,
        0.9999774098396301
      ],
      "min": [
        -0.9999892711639404,
        -0.9999969005584717,
        -0.9999874830245972
      ],
      "type": "VEC3"
    },
    {
      "bufferView": 0,
      "byteOffset": 1335432,
      "componentType": 5125,
      "count": 325863,
      "type": "SCALAR"
    },
    {
      "bufferView": 1,
      "byteOffset": 3145536,
      "componentType": 5126,
      "count": 65532,
      "max": [
        267.02972412109375,
        357.3470458984375,
        272.08563232421875
      ],
      "min": [
        -324.78857421875,
        -416.35223388671875,
        -300.83502197265625
      ],
      "type": "VEC3"
    },
    {
      "bufferView": 1,
      "byteOffset": 3931920,
      "componentType": 5126,
      "count": 65532,
      "max": [
        0.9999938607215881,
        0.9999404549598694,
        0.9999884963035583
      ],
      "min": [
        -0.9999845027923584,
        -0.9999628663063049,
        -0.9999901056289673
      ],
      "type": "VEC3"
    },
    {
      "bufferView": 0,
      "byteOffset": 2638884,
      "componentType": 5125,
      "count": 308406,
      "type": "SCALAR"
    },
    {
      "bufferView": 1,
      "byteOffset": 4718304,
      "componentType": 5126,
      "count": 27804,
      "max": [
        272.73297119140625,
        352.67926025390625,
        271.555419921875
      ],
      "min": [
        -325.8009033203125,
        -425.19329833984375,
        -298.9817810058594
      ],
      "type": "VEC3"
    },
    {
      "bufferView": 1,
      "byteOffset": 5051952,
      "componentType": 5126,
      "count": 27804,
      "max": [
        0.9999780058860779,
        0.999866783618927,
        0.9999203085899353
      ],
      "min": [
        -0.9999845027923584,
        -0.9997977614402771,
        -0.9999617338180542
      ],
      "type": "VEC3"
    },
    {
      "bufferView": 0,
      "byteOffset": 3872508,
      "componentType": 5125,
      "count": 84489,
      "type": "SCALAR"
    }
  ],
  "asset": {
    "extras": {
      "author": "HackSpace Taganrog (https://sketchfab.com/hackspace)",
      "license": "CC-BY-4.0 (http://creativecommons.org/licenses/by/4.0/)",
      "source": "https://sketchfab.com/3d-models/couple-in-love-414351f14210460db18352b5d70fb68b",
      "title": "Couple in love."
    },
    "generator": "Sketchfab-12.66.0",
    "version": "2.0"
  },
  "bufferViews": [
    {
      "buffer": 0,
      "byteLength": 4210464,
      "name": "floatBufferViews",
      "target": 34963
    },
    {
      "buffer": 0,
      "byteLength": 5385600,
      "byteOffset": 4210464,
      "byteStride": 12,
      "name": "floatBufferViews",
      "target": 34962
    }
  ],
  "buffers": [
    {
      "byteLength": 9596064,
      "uri": "scene.bin"
    }
  ],
  "materials": [
    {
      "doubleSided": true,
      "name": "Scene_-_Root",
      "pbrMetallicRoughness": {
        "baseColorFactor": [
          0.5,
          0.5,
          0.5,
          1.0
        ],
        "metallicFactor": 0.0,
        "roughnessFactor": 0.6
      }
    }
  ],
  "meshes": [
    {
      "name": "Object_0",
      "primitives": [
        {
          "attributes": {
            "NORMAL": 1,
            "POSITION": 0
          },
          "indices": 2,
          "material": 0,
          "mode": 4
        }
      ]
    },
    {
      "name": "Object_1",
      "primitives": [
        {
          "attributes": {
            "NORMAL": 4,
            "POSITION": 3
          },
          "indices": 5,
          "material": 0,
          "mode": 4
        }
      ]
    },
    {
      "name": "Object_2",
      "primitives": [
        {
          "attributes": {
            "NORMAL": 7,
            "POSITION": 6
          },
          "indices": 8,
          "material": 0,
          "mode": 4
        }
      ]
    },
    {
      "name": "Object_3",
      "primitives": [
        {
          "attributes": {
            "NORMAL": 10,
            "POSITION": 9
          },
          "indices": 11,
          "material": 0,
          "mode": 4
        }
      ]
    }
  ],
  "nodes": [
    {
      "children": [
        1
      ],
      "matrix": [
        -1.0,
        -1.2246468525851679e-16,
        -2.7192622655495665e-32,
        0.0,
        0.0,
        2.220446049250313e-16,
        -1.0,
        0.0,
        1.2246468525851679e-16,
        -1.0,
        -2.220446049250313e-16,
        0.0,
        0.0,
        0.0,
        0.0,
        1.0
      ],
      "name": "Sketchfab_model"
    },
    {
      "children": [
        2,
        3,
        4,
        5
      ],
      "name": "f18fef7286bc421cb0f411199cda5b3e.stl.cleaner"
    },
    {
      "mesh": 0,
      "name": "Object_2"
    },
    {
      "mesh": 1,
      "name": "Object_3"
    },
    {
      "mesh": 2,
      "name": "Object_4"
    },
    {
      "mesh": 3,
      "name": "Object_5"
    }
  ],
  "scene": 0,
  "scenes": [
    {
      "name": "Sketchfab_Scene",
      "nodes": [
        0
      ]
    }
  ]
}
